<svg width="12" height="12" viewBox="0 0 12 12" fill="none" xmlns="http://www.w3.org/2000/svg">
<path fill-rule="evenodd" clip-rule="evenodd" d="M5.72291 0.773315C2.67462 0.773315 0.203369 3.18026 0.203369 6.14924C0.203369 9.11822 2.67462 11.5252 5.72291 11.5252C8.7712 11.5252 11.2424 9.11822 11.2424 6.14924C11.2424 3.18026 8.7712 0.773315 5.72291 0.773315ZM8.11538 5.24022C8.15943 5.19117 8.19297 5.13404 8.21402 5.07218C8.23507 5.01033 8.2432 4.94499 8.23795 4.88003C8.23269 4.81506 8.21414 4.75178 8.1834 4.69389C8.15266 4.63601 8.11035 4.5847 8.05895 4.54298C8.00755 4.50127 7.9481 4.46998 7.88411 4.45097C7.82011 4.43196 7.75285 4.4256 7.6863 4.43228C7.61974 4.43896 7.55523 4.45854 7.49656 4.48986C7.43788 4.52118 7.38623 4.56361 7.34465 4.61466L5.18701 7.13597L4.07056 6.04808C3.97592 5.95905 3.84917 5.90979 3.71761 5.91091C3.58604 5.91202 3.46019 5.96342 3.36716 6.05403C3.27413 6.14464 3.22135 6.26722 3.22021 6.39536C3.21907 6.5235 3.26964 6.64695 3.36105 6.73913L4.86637 8.20529C4.91568 8.25328 4.97471 8.29074 5.0397 8.31528C5.10469 8.33982 5.17421 8.35091 5.24385 8.34782C5.31348 8.34474 5.38169 8.32757 5.44413 8.29739C5.50656 8.26721 5.56186 8.22469 5.60649 8.17254L8.11538 5.24022Z" fill="#007AFF"/>
</svg>
