<svg width="25" height="25" viewBox="0 0 25 25" fill="none" xmlns="http://www.w3.org/2000/svg">
<path d="M18.1181 16.9625L22.4011 21.2445L20.9861 22.6595L16.7041 18.3765C15.1109 19.6537 13.1291 20.3484 11.0871 20.3455C6.11913 20.3455 2.08713 16.3135 2.08713 11.3455C2.08713 6.37746 6.11913 2.34546 11.0871 2.34546C16.0551 2.34546 20.0871 6.37746 20.0871 11.3455C20.09 13.3875 19.3953 15.3692 18.1181 16.9625ZM16.1121 16.2205C17.3812 14.9153 18.09 13.1659 18.0871 11.3455C18.0871 7.47746 14.9541 4.34546 11.0871 4.34546C7.21913 4.34546 4.08713 7.47746 4.08713 11.3455C4.08713 15.2125 7.21913 18.3455 11.0871 18.3455C12.9076 18.3483 14.657 17.6396 15.9621 16.3705L16.1121 16.2205Z" fill="#F4F4F4"/>
</svg>
