<svg width="18" height="19" viewBox="0 0 18 19" fill="none" xmlns="http://www.w3.org/2000/svg">
<path d="M0.110902 3.08507C0.110902 2.51796 0.331179 1.97408 0.723276 1.57307C1.11537 1.17206 1.64717 0.946777 2.20168 0.946777H12.4655C13.02 0.946777 13.5518 1.17206 13.9439 1.57307C14.336 1.97408 14.5563 2.51796 14.5563 3.08507V4.06324C15.2779 4.11256 15.9543 4.44055 16.4484 4.9808C16.9425 5.52104 17.2173 6.23315 17.2172 6.97287V15.1373C17.2172 15.9106 16.9169 16.6523 16.3822 17.1991C15.8475 17.7459 15.1223 18.0531 14.3662 18.0531H2.965C2.20885 18.0531 1.48367 17.7459 0.948998 17.1991C0.414321 16.6523 0.113943 15.9106 0.113943 15.1373V6.97287H0.110902V3.27946H0.119265C0.113631 3.21482 0.11084 3.14996 0.110902 3.08507ZM13.4158 3.08507C13.4158 2.54855 12.9901 2.11312 12.4655 2.11312H2.20168C1.94963 2.11312 1.7079 2.21552 1.52968 2.3978C1.35145 2.58007 1.25132 2.82729 1.25132 3.08507C1.25132 3.34285 1.35145 3.59007 1.52968 3.77234C1.7079 3.95462 1.94963 4.05702 2.20168 4.05702H13.4158V3.08507ZM12.0853 11.0551C11.9341 11.0551 11.7891 11.1165 11.6821 11.2259C11.5752 11.3352 11.5151 11.4836 11.5151 11.6382C11.5151 11.7929 11.5752 11.9412 11.6821 12.0506C11.7891 12.16 11.9341 12.2214 12.0853 12.2214H13.986C14.1373 12.2214 14.2823 12.16 14.3892 12.0506C14.4962 11.9412 14.5563 11.7929 14.5563 11.6382C14.5563 11.4836 14.4962 11.3352 14.3892 11.2259C14.2823 11.1165 14.1373 11.0551 13.986 11.0551H12.0853Z" fill="white"/>
</svg>
